<?xml version="1.0" encoding="UTF-8"?>
<svg width="186px" height="24px" viewBox="0 0 186 24" version="1.1" xmlns="http://www.w3.org/2000/svg" xmlns:xlink="http://www.w3.org/1999/xlink">
    <!-- Generator: Sketch 51 (57462) - http://www.bohemiancoding.com/sketch -->
    <title>logo</title>
    <desc>Created with Sketch.</desc>
    <defs></defs>
    <g id="logo" stroke="none" stroke-width="1" fill="none" fill-rule="evenodd">
        <path d="M43.746087,9.41334769 C45.3699379,11.409042 46.6350311,13.1528525 47.5036025,14.6447793 L46.3706832,15.4585576 C45.4643478,13.8310011 44.2559006,12.0484392 42.7075776,10.0914962 L43.746087,9.41334769 Z M30.5286957,10.2465016 L32.6245963,10.2465016 L32.6245963,6.0613563 L30.2454658,6.0613563 L30.2454658,4.7050592 L36.3632298,4.7050592 L36.3632298,6.0613563 L33.9463354,6.0613563 L33.9463354,10.2465016 L36.098882,10.2465016 L36.098882,11.583423 L33.9463354,11.583423 L33.9463354,16.1754575 C34.8149068,15.9041981 35.6457143,15.5941873 36.4765217,15.2648009 L36.4765217,16.6017223 C34.569441,17.3573735 32.5301863,17.977395 30.3398758,18.4811625 L30,17.1442411 C30.8874534,16.9892357 31.7560248,16.795479 32.6245963,16.5629709 L32.6245963,11.583423 L30.5286957,11.583423 L30.5286957,10.2465016 Z M37.1185093,4.14316469 L46.710559,4.14316469 L46.710559,5.49946179 L43.3118012,5.49946179 C43.0663354,6.35199139 42.7831056,7.16576964 42.4621118,7.94079656 L42.4621118,20.941873 L41.1403727,20.941873 L41.1403727,10.6146394 C40.0452174,12.4940797 38.6857143,14.1797632 37.0618634,15.67169 L36.2310559,14.5672766 C38.9878261,12.0678149 40.8949068,9.0452099 41.9900621,5.49946179 L37.1185093,5.49946179 L37.1185093,4.14316469 Z M55.5284472,4.66630786 L59.8335404,4.66630786 C59.6447205,4.14316469 59.4747826,3.67814855 59.2859627,3.25188375 L60.7209938,3 C60.9098137,3.50376749 61.0608696,4.04628633 61.2119255,4.66630786 L65.7436025,4.66630786 L65.7436025,5.82884822 L63.7609938,5.82884822 C63.5910559,6.52637244 63.364472,7.22389666 63.0623602,7.88266954 L66.2911801,7.88266954 L66.2911801,9.06458558 L54.9619876,9.06458558 L54.9619876,7.88266954 L57.9264596,7.88266954 C57.7376398,7.14639397 57.5110559,6.44886975 57.2467081,5.82884822 L55.5284472,5.82884822 L55.5284472,4.66630786 Z M61.7406211,7.88266954 C62.0804969,7.20452099 62.3448447,6.52637244 62.4959006,5.82884822 L58.6062112,5.82884822 C58.813913,6.46824543 59.0216149,7.14639397 59.2104348,7.88266954 L61.7406211,7.88266954 Z M56.1326708,10.2658773 L64.988323,10.2658773 L64.988323,16.3692142 L62.6091925,16.3692142 L62.6091925,18.8493003 C62.6091925,19.2561895 62.7791304,19.4693219 63.1378882,19.4693219 L64.6862112,19.4693219 C64.912795,19.4693219 65.0827329,19.3724435 65.1960248,19.2174381 C65.3093168,19.0043057 65.4037267,18.3842842 65.4603727,17.3379978 L66.6688199,17.7255113 C66.555528,19.1205597 66.3667081,19.9730893 66.1023602,20.2831001 C65.8380124,20.5543595 65.4414907,20.6899892 64.912795,20.6899892 L62.7602484,20.6899892 C61.7595031,20.6899892 61.2685714,20.1668461 61.2685714,19.1205597 L61.2685714,16.3692142 L59.4370186,16.3692142 C59.2104348,17.5317546 58.7383851,18.4811625 58.0208696,19.1980624 C57.2278261,19.9537137 55.906087,20.5543595 54.0934161,20.9806243 L53.5836025,19.7405813 C55.1696894,19.4111948 56.3026087,18.9655544 57.0012422,18.3842842 C57.5677019,17.8805167 57.9642236,17.2023681 58.1719255,16.3692142 L56.1326708,16.3692142 L56.1326708,10.2658773 Z M63.7232298,15.2260495 L63.7232298,13.7922497 L57.378882,13.7922497 L57.378882,15.2260495 L63.7232298,15.2260495 Z M57.378882,12.8040904 L63.7232298,12.8040904 L63.7232298,11.3896663 L57.378882,11.3896663 L57.378882,12.8040904 Z M54.9242236,14.9547901 L54.9242236,16.3692142 C53.2814907,17.2217438 51.5254658,17.919268 49.6372671,18.4811625 L49.2785093,16.9698601 C49.9393789,16.8148547 50.6002484,16.6404736 51.261118,16.4467169 L51.261118,9.27771798 L49.2973913,9.27771798 L49.2973913,7.92142088 L51.261118,7.92142088 L51.261118,3.31001076 L52.6395031,3.31001076 L52.6395031,7.92142088 L54.32,7.92142088 L54.32,9.27771798 L52.6395031,9.27771798 L52.6395031,15.9623251 C53.4136646,15.6523143 54.1689441,15.3229279 54.9242236,14.9547901 Z M85.1354037,6.93326157 C85.1354037,10.8471475 85.0409938,13.2303552 84.8521739,14.0828848 C84.663354,14.8966631 83.8514286,15.3229279 82.4352795,15.3229279 L82.3219876,15.3229279 L81.9443478,13.9472551 C82.2275776,13.9666308 82.4919255,13.9860065 82.7185093,13.9860065 C83.228323,13.9860065 83.5493168,13.7728741 83.6626087,13.3466093 C83.7570186,12.9397201 83.8136646,11.409042 83.8325466,8.77395048 L81.0757764,9.62648009 L81.0757764,16.9504844 L79.7540373,16.9504844 L79.7540373,10.0333692 L76.9972671,10.8858988 L76.9972671,18.4036598 C76.9972671,18.98493 77.3182609,19.2949408 77.9791304,19.2949408 L83.2849689,19.2949408 C83.6814907,19.2949408 83.9647205,19.1593111 84.1157764,18.9074273 C84.3234783,18.5974166 84.4745342,17.6480086 84.5500621,16.0785791 L85.8151553,16.4854682 C85.6829814,18.4424112 85.4375155,19.6243272 85.0598758,20.050592 C84.738882,20.4187298 84.2290683,20.6124865 83.5304348,20.6124865 L77.5637267,20.6124865 C76.2986335,20.6124865 75.675528,19.9537137 75.675528,18.6749193 L75.675528,11.2927879 L74.089441,11.7965554 L74.089441,10.4402583 L75.675528,9.93649085 L75.675528,5.17007535 L76.9972671,5.17007535 L76.9972671,9.51022605 L79.7540373,8.63832078 L79.7540373,3.19375673 L81.0757764,3.19375673 L81.0757764,8.21205597 L85.1354037,6.93326157 Z M74.3349068,15.1679225 L74.3349068,16.5435953 C72.597764,17.3767492 70.7284472,18.0742734 68.7269565,18.6167922 L68.3870807,17.2217438 C69.1801242,17.0473628 69.9731677,16.8342304 70.7662112,16.6017223 L70.7662112,9.70398278 L68.6136646,9.70398278 L68.6136646,8.34768568 L70.7662112,8.34768568 L70.7662112,3.34876211 L72.1068323,3.34876211 L72.1068323,8.34768568 L74.070559,8.34768568 L74.070559,9.70398278 L72.1068323,9.70398278 L72.1068323,16.1367061 C72.8621118,15.846071 73.6173913,15.5166846 74.3349068,15.1679225 Z M94.8029814,3.96878364 L104.036273,3.96878364 L104.036273,12.9203445 L100.10882,12.9203445 L100.10882,15.2066738 L104.357267,15.2066738 L104.357267,16.5242196 L100.10882,16.5242196 L100.10882,19.0430571 L105.055901,19.0430571 L105.055901,20.3799785 L93.6889441,20.3799785 L93.6889441,19.0430571 L98.7493168,19.0430571 L98.7493168,16.5242196 L94.4819876,16.5242196 L94.4819876,15.2066738 L98.7493168,15.2066738 L98.7493168,12.9203445 L94.8029814,12.9203445 L94.8029814,3.96878364 Z M102.733416,11.6803014 L102.733416,9.06458558 L100.10882,9.06458558 L100.10882,11.6803014 L102.733416,11.6803014 Z M98.7493168,11.6803014 L98.7493168,9.06458558 L96.1058385,9.06458558 L96.1058385,11.6803014 L98.7493168,11.6803014 Z M96.1058385,7.84391819 L98.7493168,7.84391819 L98.7493168,5.2088267 L96.1058385,5.2088267 L96.1058385,7.84391819 Z M100.10882,5.2088267 L100.10882,7.84391819 L102.733416,7.84391819 L102.733416,5.2088267 L100.10882,5.2088267 Z M88.1376398,10.3821313 L90.1957764,10.3821313 L90.1957764,5.79009688 L87.8732919,5.79009688 L87.8732919,4.47255113 L93.896646,4.47255113 L93.896646,5.79009688 L91.5930435,5.79009688 L91.5930435,10.3821313 L93.6700621,10.3821313 L93.6700621,11.7190527 L91.5930435,11.7190527 L91.5930435,16.1173305 C92.310559,15.8654467 92.9903106,15.5941873 93.6700621,15.2841765 L93.6700621,16.6404736 C91.9329193,17.3767492 90.0636025,17.9967707 88.0621118,18.5005382 L87.722236,17.1636168 C88.5530435,17.0086114 89.3838509,16.8148547 90.1957764,16.5823466 L90.1957764,11.7190527 L88.1376398,11.7190527 L88.1376398,10.3821313 Z M109.096646,10.1108719 C108.530186,10.9634015 107.907081,11.7965554 107.227329,12.5715823 L106.793043,11.0796555 C108.643478,8.73519914 109.984099,6.04198062 110.833789,3.01937567 L112.098882,3.62002153 C111.645714,5.11194833 111.098137,6.50699677 110.437267,7.82454252 L110.437267,21 L109.096646,21 L109.096646,10.1108719 Z M112.023354,5.75134553 L117.839006,5.75134553 C117.555776,4.97631862 117.234783,4.24004306 116.857143,3.50376749 L118.16,3.13562971 C118.556522,3.98815931 118.858634,4.76318622 119.085217,5.48008611 L118.367702,5.75134553 L124.315528,5.75134553 L124.315528,7.06889128 L112.023354,7.06889128 L112.023354,5.75134553 Z M113.760497,8.63832078 L122.691677,8.63832078 L122.691677,9.8977395 L113.760497,9.8977395 L113.760497,8.63832078 Z M113.760497,11.3702906 L122.691677,11.3702906 L122.691677,12.649085 L113.760497,12.649085 L113.760497,11.3702906 Z M123.031553,14.2378902 L123.031553,20.9612487 L121.709814,20.9612487 L121.709814,19.9149623 L114.723478,19.9149623 L114.723478,20.9612487 L113.401739,20.9612487 L113.401739,14.2378902 L123.031553,14.2378902 Z M114.723478,18.5974166 L121.709814,18.5974166 L121.709814,15.5360603 L114.723478,15.5360603 L114.723478,18.5974166 Z M129.036025,4.62755651 L133.190062,4.62755651 C133.45441,4.12378902 133.64323,3.62002153 133.775404,3.07750269 L135.191553,3.27125942 C135.040497,3.75565124 134.851677,4.20129171 134.625093,4.62755651 L140.856149,4.62755651 L140.856149,14.1022605 L129.036025,14.1022605 L129.036025,4.62755651 Z M139.53441,12.9009688 L139.53441,11.2734123 L130.357764,11.2734123 L130.357764,12.9009688 L139.53441,12.9009688 Z M130.357764,10.1496233 L139.53441,10.1496233 L139.53441,8.56081808 L130.357764,8.56081808 L130.357764,10.1496233 Z M130.357764,7.43702906 L139.53441,7.43702906 L139.53441,5.8482239 L130.357764,5.8482239 L130.357764,7.43702906 Z M128.091925,15.4198062 L129.375901,15.6910657 C128.922733,17.4736276 128.299627,19.0043057 127.487702,20.3218515 L126.335901,19.5662002 C127.147826,18.3261572 127.733168,16.9311087 128.091925,15.4198062 Z M137.193043,20.6706136 L132.340373,20.6706136 C131.245217,20.6706136 130.716522,20.1087191 130.716522,19.0236814 L130.716522,15.3229279 L132.094907,15.3229279 L132.094907,18.7330463 C132.094907,19.1786868 132.302609,19.4111948 132.736894,19.4111948 L136.928696,19.4111948 C137.362981,19.4111948 137.665093,19.2949408 137.816149,19.1011841 C138.042733,18.8299247 138.212671,18.0742734 138.288199,16.8148547 L139.591056,17.2411195 C139.44,18.868676 139.175652,19.8568353 138.798012,20.2249731 C138.458137,20.5156082 137.910559,20.6706136 137.193043,20.6706136 Z M134.662857,14.6254037 C135.682484,15.6329386 136.456646,16.5242196 137.004224,17.2798708 L135.965714,18.0161464 C135.399255,17.1829925 134.643975,16.2723358 133.662112,15.2648009 L134.662857,14.6254037 Z M140.761739,15.0710441 C141.970186,16.621098 142.895404,17.9967707 143.537391,19.1593111 L142.461118,19.934338 C141.781366,18.6749193 140.856149,17.2798708 139.704348,15.7491927 L140.761739,15.0710441 Z M153.412671,20.9031216 L151.297888,20.9031216 L150.995776,19.5274489 C151.675528,19.5855759 152.317516,19.6243272 152.940621,19.6243272 C153.393789,19.6243272 153.639255,19.3724435 153.639255,18.9074273 L153.639255,14.1603875 C151.826584,14.2766416 149.862857,14.3928956 147.729193,14.489774 L147.351553,13.2497309 C147.785839,13.2109795 148.18236,13.1141012 148.541118,12.9978471 C150.089441,12.3003229 151.826584,11.2152853 153.752547,9.74273412 C152.109814,9.87836383 150.334907,9.99461787 148.446708,10.1108719 L148.163478,8.87082885 C148.503354,8.8320775 148.805466,8.73519914 149.088696,8.6189451 C150.032795,8.13455328 151.146832,7.18514532 152.430807,5.75134553 C150.825839,5.82884822 149.12646,5.86759957 147.313789,5.86759957 L146.917267,4.64693219 C152.336398,4.64693219 156.849193,4.24004306 160.43677,3.4262648 L161.09764,4.60818084 C159.133913,5.07319699 156.830311,5.4219591 154.149068,5.6350915 C152.978385,7.03013994 151.78882,8.11517761 150.580373,8.92895587 C152.090932,8.85145318 153.620373,8.73519914 155.168696,8.59956943 C156.018385,7.90204521 156.886957,7.1270183 157.793292,6.29386437 L159.039503,6.93326157 C155.848447,9.82023681 153.072795,11.8934338 150.693665,13.1722282 C153.771429,12.9978471 156.414907,12.7847147 158.605217,12.5134553 C158.133168,11.8934338 157.642236,11.2540366 157.132422,10.6340151 L158.15205,9.99461787 C159.700373,11.8546825 160.889938,13.4628633 161.720745,14.8385361 L160.62559,15.6329386 C160.266832,14.9741658 159.851429,14.3153929 159.398261,13.6372443 C158.095404,13.7922497 156.641491,13.9278794 155.01764,14.0635091 L155.01764,19.2561895 C155.01764,20.3412271 154.470062,20.9031216 153.412671,20.9031216 Z M157.604472,15.2454252 C159.511553,16.6598493 161.09764,18.0742734 162.381615,19.5080732 L161.418634,20.4962325 C160.266832,19.1399354 158.699627,17.68676 156.698137,16.1367061 L157.604472,15.2454252 Z M150.410435,15.3810549 L151.373416,16.2529602 C150.089441,17.8417653 148.503354,19.2174381 146.615155,20.3993541 L145.765466,19.2755651 C147.615901,18.1517761 149.164224,16.853606 150.410435,15.3810549 Z M171.123975,16.5435953 L171.123975,17.8805167 C169.386832,18.7717976 167.423106,19.5080732 165.232795,20.050592 L165.062857,18.6555436 C167.36646,18.1324004 169.386832,17.4348762 171.123975,16.5435953 Z M168.102857,3.15500538 L169.405714,3.69752422 C168.461615,6.17761033 167.498634,8.15392896 166.51677,9.62648009 C167.347578,9.51022605 168.178385,9.35522067 169.009193,9.20021529 C169.349068,8.54144241 169.688944,7.86329386 170.047702,7.1270183 L171.275031,7.61141012 C169.613416,10.8277718 168.235031,13.1334769 167.139876,14.5285253 C168.461615,14.1797632 169.783354,13.714747 171.123975,13.1141012 L171.123975,14.4122713 C169.141366,15.2648009 167.234286,15.8266954 165.421615,16.1367061 L165.043975,14.8579117 C165.289441,14.7416577 165.497143,14.5866523 165.667081,14.4316469 C166.384596,13.65662 167.27205,12.3584499 168.310559,10.4983854 C167.290932,10.6921421 166.252422,10.8858988 165.213913,11.0409042 L164.855155,9.7621098 C165.081739,9.66523143 165.270559,9.49085038 165.459379,9.21959096 C166.479006,7.45640474 167.347578,5.44133477 168.102857,3.15500538 Z M171.765963,11.6609257 L171.463851,10.4208827 C171.577143,10.3821313 171.652671,10.34338 171.728199,10.3240043 C172.370186,9.83961249 173.182112,8.59956943 174.201739,6.58449946 L170.972919,6.58449946 L170.972919,5.24757804 L175.787826,5.24757804 C175.523478,4.51130248 175.240248,3.8525296 174.938137,3.25188375 L176.316522,3.01937567 C176.599752,3.67814855 176.882981,4.43379978 177.147329,5.24757804 L181.395776,5.24757804 L181.395776,6.58449946 L175.617888,6.58449946 C174.787081,8.27018299 174.050683,9.49085038 173.408696,10.2658773 C175.16472,10.1108719 176.920745,9.8977395 178.657888,9.60710441 C178.242484,8.98708288 177.789317,8.34768568 177.317267,7.72766416 L178.355776,7.06889128 C179.639752,8.75457481 180.640497,10.2271259 181.33913,11.5059203 L180.281739,12.2615716 C180.017391,11.7578041 179.734161,11.2734123 179.413168,10.7696448 C177.071801,11.1571582 174.522733,11.4477933 171.765963,11.6609257 Z M173.295404,12.4553283 L174.617143,12.4553283 C174.522733,14.8966631 174.220621,16.6986006 173.729689,17.8417653 C173.182112,19.0430571 172.275776,20.0699677 170.991801,20.9224973 L170.12323,19.818084 C171.237267,19.0818084 172.030311,18.2292788 172.50236,17.2411195 C172.955528,16.2335845 173.219876,14.6447793 173.295404,12.4553283 Z M180.017391,20.6124865 L178.695652,20.6124865 C177.562733,20.6124865 176.996273,20.050592 176.996273,18.926803 L176.996273,12.2809473 L178.29913,12.2809473 L178.29913,18.6942949 C178.29913,19.1011841 178.431304,19.3143165 178.733416,19.3530678 L179.960745,19.3530678 C180.376149,19.3143165 180.621615,19.0818084 180.697143,18.6555436 C180.772671,18.1130248 180.829317,17.2798708 180.829317,16.1367061 L182,16.5629709 C182,18.3842842 181.867826,19.5274489 181.62236,19.9537137 C181.376894,20.3412271 180.848199,20.5737352 180.017391,20.6124865 Z" id="环境地理信息系统" fill="#FFFFFF"></path>
        <path d="M9,8.99887405 L12,6.99915554 L12,21.9970444 L9,19.9973259 L9,8.99887405 Z M14,14.9980296 L14,1 L17,2.99971851 L17,12.9983111 L14,14.9980296 Z M4,5.99929628 L12,1 L12,3.99957777 L7,6.99915554 L7,18.9974666 L4,16.9977481 L4,5.99929628 Z M19,3.99957777 L22,5.99929628 L22,16.9977481 L14,23 L14,18.9974666 L19,14.9980296 L19,3.99957777 Z" id="Combined-Shape" fill="#FFFFFF"></path>
    </g>
</svg>