<svg xmlns="http://www.w3.org/2000/svg" width="172" height="22" viewBox="0 0 172 22">
  <g fill="#FFF" fill-rule="evenodd">
    <path d="M15,2.99957777 L18,4.99929628 L18,15.9977481 L10,22 L10,17.9974666 L15,13.9980296 L15,2.99957777 Z M8,5.99915554 L8,20.9970444 L5,18.9973259 L5,7.99887405 L8,5.99915554 Z M8,0 L8,2.99957777 L3,5.99915554 L3,17.9974666 L0,15.9977481 L0,4.99929628 L8,0 Z M10,0 L13,1.99971851 L13,11.9983111 L10,13.9980296 L10,0 Z"/>
    <path fill-rule="nonzero" d="M30.934,5.516 L30.934,13.634 C30.214,13.832 29.476,14.03 28.72,14.21 L29.224,15.902 C31.276,15.344 33.094,14.732 34.678,14.084 L34.678,12.374 C34.03,12.626 33.364,12.878 32.662,13.112 L32.662,5.516 L34.606,5.516 L34.606,3.86 L28.936,3.86 L28.936,5.516 L30.934,5.516 Z M35.182,2.87 L35.182,4.526 L39.394,4.526 C39.322,5.048 39.214,5.552 39.07,6.056 L35.866,6.056 L35.866,14.768 L37.504,14.768 L37.504,7.64 L42.886,7.64 L42.886,14.768 L44.542,14.768 L44.542,6.056 L40.762,6.056 L40.92175,5.31125 C40.9735,5.057 41.023,4.796 41.068,4.526 L45.262,4.526 L45.262,2.87 L35.182,2.87 Z M41.86,14.66 L40.726,15.758 C42.238,16.91 43.408,17.972 44.236,18.962 L45.46,17.738 C44.488,16.73 43.3,15.704 41.86,14.66 Z M39.286,8.54 L39.286,11.69 C39.214,13.166 38.8,14.372 38.08,15.308 C37.324,16.172 35.884,16.892 33.796,17.468 L34.732,18.926 C36.892,18.314 38.44,17.486 39.394,16.406 C40.366,15.218 40.906,13.634 40.996,11.69 L40.996,8.54 L39.286,8.54 Z M61.282,2.978 L48.736,2.978 L48.736,18.872 L50.482,18.872 L50.482,17.774 L59.554,17.774 L59.554,18.836 L61.282,18.836 L61.282,2.978 Z M50.482,16.118 L50.482,13.13 L59.554,13.13 L59.554,16.118 L50.482,16.118 Z M50.482,11.582 L50.482,8.81 L59.554,8.81 L59.554,11.582 L50.482,11.582 Z M50.482,7.226 L50.482,4.634 L59.554,4.634 L59.554,7.226 L50.482,7.226 Z M73.468,10.502 L76.258,10.502 L76.258,12.5 L73.468,12.5 L73.468,10.502 Z M73.468,14.084 L76.258,14.084 L76.258,16.316 L73.468,16.316 L73.468,14.084 Z M73.468,17.954 L81.082,17.954 L81.082,16.316 L77.95,16.316 L77.95,14.084 L80.524,14.084 L80.524,12.5 L77.95,12.5 L77.95,10.502 L80.524,10.502 L80.524,8.9 L77.95,8.9 L77.95,6.83 L80.884,6.83 L80.884,5.192 L78.13,5.192 C77.914,4.292 77.59,3.302 77.194,2.204 L75.556,2.636 C75.916,3.464 76.24,4.328 76.528,5.192 L73.774,5.192 C74.134,4.364 74.44,3.5 74.692,2.6 L73.036,2.276 C72.46,4.544 71.452,6.614 70.03,8.522 L70.606,10.322 C71.02,9.818 71.416,9.314 71.776,8.792 L71.776,18.764 L73.468,18.764 L73.468,17.954 Z M76.258,6.83 L76.258,8.9 L73.468,8.9 L73.468,6.83 L76.258,6.83 Z M70.336,9.512 C69.832,9.764 69.328,9.998 68.806,10.214 L68.806,7.064 L70.48,7.064 L70.48,5.408 L68.806,5.408 L68.806,2.24 L67.096,2.24 L67.096,5.408 L64.936,5.408 L64.936,7.064 L67.096,7.064 L67.096,10.844 C66.268,11.096 65.44,11.312 64.594,11.492 L65.026,13.22 C65.71,13.022 66.412,12.806 67.096,12.572 L67.096,16.388 C67.096,16.82 66.862,17.036 66.394,17.036 C65.944,17.036 65.476,17 64.99,16.928 L65.368,18.584 L66.988,18.584 C68.194,18.584 68.806,17.99 68.806,16.82 L68.806,11.924 L69.8273333,11.4866667 C69.998,11.412 70.168,11.336 70.336,11.258 L70.336,9.512 Z M84.466,2.42 L83.278,3.554 C84.574,4.598 85.564,5.552 86.266,6.452 L87.49,5.228 C86.662,4.292 85.654,3.356 84.466,2.42 Z M94.762,18.548 L98.884,18.548 L99.298,16.856 L98.7406667,16.8913333 C98.322,16.914 97.81,16.934 97.21,16.946 L95.84875,16.97075 C95.401,16.9775 94.96,16.982 94.528,16.982 L93.051332,16.9753555 C92.2763125,16.9685 91.576,16.95725 90.946,16.946 C89.902,16.91 89.128,16.748 88.606,16.496 C88.156,16.262 87.724,15.902 87.328,15.416 C87.238,15.308 87.148,15.236 87.076,15.164 L87.076,8.342 L83.044,8.342 L83.044,9.926 L85.474,9.926 L85.474,15.02 C84.754,15.38 83.944,16.298 83.044,17.756 L84.304,18.926 C85.222,17.306 85.87,16.496 86.23,16.496 C86.446,16.496 86.662,16.64 86.896,16.946 C87.436,17.558 88.048,17.99 88.768,18.206 C89.506,18.386 90.442,18.494 91.594,18.512 L93.553552,18.540512 C93.97,18.54512 94.3732,18.548 94.762,18.548 Z M88.552,4.94 L88.552,6.542 L90.532,6.542 L90.532,7.82 C90.532,8.486 90.496,9.116 90.424,9.728 L87.922,9.728 L87.922,11.348 L90.1,11.348 C89.704,12.788 89.002,13.868 87.994,14.588 L89.02,15.956 C90.352,14.948 91.252,13.418 91.756,11.348 L94.618,11.348 L94.618,16.244 L96.274,16.244 L96.274,11.348 L98.992,11.348 L98.992,9.728 L96.274,9.728 L96.274,6.542 L98.416,6.542 L98.416,4.94 L96.274,4.94 L96.274,2.24 L94.618,2.24 L94.618,4.94 L92.17,4.94 L92.17,2.222 L90.532,2.222 L90.532,4.94 L88.552,4.94 Z M92.17,6.542 L94.618,6.542 L94.618,9.728 L92.044,9.728 C92.116,9.008 92.17,8.252 92.17,7.424 L92.17,6.542 Z M114.256,9.314 L103.78,9.314 L103.78,18.836 L105.49,18.836 L105.49,18.206 L113.392,18.206 L113.392,18.854 L115.102,18.854 L115.102,14.048 L105.49,14.048 L105.49,13.094 L114.256,13.094 L114.256,9.314 Z M105.49,16.694 L105.49,15.398 L113.392,15.398 L113.392,16.694 L105.49,16.694 Z M105.49,11.726 L105.49,10.682 L112.582,10.682 L112.582,11.726 L105.49,11.726 Z M116.74,7.064 L109.954,7.064 L109.679333,6.33733333 C109.634,6.222 109.588,6.11 109.54,6.002 L110.404,6.56 C110.782,6.056 111.124,5.498 111.43,4.904 L112.348,4.904 C112.744,5.462 113.086,6.038 113.374,6.614 L114.886,6.056 C114.688,5.696 114.454,5.3 114.166,4.904 L117.1,4.904 L117.1,3.41 L112.096,3.41 C112.204,3.122 112.294,2.834 112.402,2.528 L110.764,2.168 C110.404,3.41 109.792,4.562 108.964,5.642 L109.27,5.84 L107.758,6.092 C107.92,6.38 108.082,6.704 108.226,7.064 L101.26,7.064 L101.26,10.502 L102.934,10.502 L102.934,8.504 L115.066,8.504 L115.066,10.502 L116.74,10.502 L116.74,7.064 Z M103.69,4.904 L104.482,4.904 C104.878,5.516 105.22,6.146 105.526,6.794 L107.092,6.2 C106.876,5.786 106.588,5.354 106.264,4.904 L108.964,4.904 L108.964,3.41 L104.428,3.41 L104.657333,2.81533333 C104.696,2.714 104.734,2.612 104.77,2.51 L103.132,2.15 C102.682,3.446 101.944,4.67 100.9,5.786 L102.394,6.722 C102.862,6.164 103.294,5.552 103.69,4.904 Z M125.326,2.852 L125.326,11.456 L129.052,11.456 L129.052,13.256 L125.11,13.256 L125.11,14.84 L129.052,14.84 L129.052,16.712 L124.408,16.712 L124.408,18.35 L135.298,18.35 L135.298,16.712 L130.744,16.712 L130.744,14.84 L134.668,14.84 L134.668,13.256 L130.744,13.256 L130.744,11.456 L134.434,11.456 L134.434,2.852 L125.326,2.852 Z M132.796,9.944 L130.744,9.944 L130.744,7.892 L132.796,7.892 L132.796,9.944 Z M129.052,9.944 L126.964,9.944 L126.964,7.892 L129.052,7.892 L129.052,9.944 Z M126.964,6.416 L126.964,4.364 L129.052,4.364 L129.052,6.416 L126.964,6.416 Z M130.744,4.364 L132.796,4.364 L132.796,6.416 L130.744,6.416 L130.744,4.364 Z M119.116,8.774 L119.116,10.412 L120.898,10.412 L120.898,14.534 C120.178,14.714 119.44,14.876 118.684,15.002 L119.098,16.64 C120.988,16.19 122.752,15.632 124.408,14.984 L124.408,13.328 C123.832,13.58 123.238,13.796 122.626,14.012 L122.626,10.412 L124.444,10.412 L124.444,8.774 L122.626,8.774 L122.626,4.922 L124.66,4.922 L124.66,3.302 L118.846,3.302 L118.846,4.922 L120.898,4.922 L120.898,8.774 L119.116,8.774 Z M144.37,18.8 C145.486,18.8 146.062,18.206 146.062,17.054 L146.062,12.536 L147.25042,12.4390204 C148.215755,12.3545306 149.119429,12.2608571 149.968,12.158 C150.382,12.77 150.76,13.364 151.084,13.94 L152.452,12.986 C151.66,11.69 150.508,10.16 149.014,8.432 L147.754,9.224 C148.186,9.746 148.582,10.268 148.978,10.79 L148.024,10.8964167 C146.389,11.071 144.529,11.231 142.444,11.366 C144.55,10.178 147.034,8.36 149.896,5.876 L148.312,5.102 C147.502,5.84 146.71,6.524 145.954,7.154 C144.694,7.244 143.434,7.316 142.174,7.388 C143.182,6.668 144.154,5.768 145.09,4.688 C147.682,4.508 149.95,4.22 151.858,3.806 L151.012,2.384 C147.466,3.068 143.11,3.428 137.962,3.428 L138.466,4.904 C140.05,4.904 141.544,4.868 142.966,4.814 C141.958,5.93 141.094,6.668 140.374,7.028 C140.014,7.19 139.636,7.298 139.222,7.334 L139.582,8.846 L141.176667,8.75066667 C142.222,8.684 143.23,8.612 144.19,8.54 C142.606,9.71 141.148,10.574 139.816,11.15 C139.384,11.294 138.88,11.402 138.34,11.456 L138.808,12.95 L140.470717,12.8724373 C141.828327,12.807102 143.117714,12.7391429 144.352,12.662 L144.352,16.64 C144.352,17.036 144.154,17.234 143.776,17.234 C143.2,17.234 142.588,17.198 141.94,17.126 L142.336,18.8 L144.37,18.8 Z M148.492,13.364 L147.358,14.48 C149.248,15.902 150.724,17.234 151.768,18.476 L152.992,17.252 C151.786,15.956 150.292,14.66 148.492,13.364 Z M141.31,13.49 C140.122,14.822 138.646,15.992 136.918,17 L137.998,18.404 C139.798,17.306 141.292,16.028 142.516,14.57 L141.31,13.49 Z M160.876,14.462 C159.22,15.272 157.276,15.92 155.08,16.406 L155.278,18.116 C157.366,17.612 159.238,16.928 160.876,16.1 L160.876,14.462 Z M157.744,2.168 C157.096,4.13 156.34,5.912 155.476,7.514 C155.26,7.838 155.008,8.072 154.738,8.18 L155.17,9.746 C156.07,9.62 156.934,9.494 157.762,9.35 L157.408245,9.94840816 C156.718367,11.0923265 156.134286,11.9188571 155.656,12.428 C155.44,12.626 155.188,12.788 154.882,12.932 L155.332,14.516 C157.078,14.228 158.932,13.688 160.876,12.878 L160.876,11.312 C159.724,11.816 158.59,12.212 157.474,12.518 C158.464,11.222 159.67,9.206 161.11,6.47 L159.58,5.894 C159.256,6.56 158.932,7.19 158.626,7.766 C158.014,7.874 157.402,7.964 156.79,8.036 C157.654,6.704 158.518,4.958 159.382,2.816 L157.744,2.168 Z M161.416,10.322 C164.026,10.124 166.456,9.854 168.688,9.512 L169.181333,10.3573333 C169.26,10.496 169.336,10.634 169.408,10.772 L170.74,9.854 C170.092,8.702 169.174,7.352 167.986,5.822 L166.69,6.632 C167.05,7.118 167.41,7.604 167.77,8.108 C166.33,8.324 164.872,8.504 163.414,8.648 C163.954,7.928 164.566,6.938 165.25,5.642 L170.722,5.642 L170.722,4.004 L166.78,4.004 C166.564,3.302 166.33,2.672 166.096,2.096 L164.35,2.384 C164.602,2.888 164.836,3.428 165.052,4.004 L160.678,4.004 L160.678,5.642 L163.468,5.642 L163.17542,6.18904173 C162.459066,7.49469204 161.856471,8.33458824 161.38,8.684 L161.236,8.747 C161.1775,8.7695 161.11,8.792 161.038,8.81 L161.416,10.322 Z M162.748,10.88 C162.676,12.86 162.442,14.282 162.028,15.146 C161.596,16.046 160.876,16.82 159.868,17.468 L160.948,18.818 C162.172,17.99 163.036,17.018 163.558,15.902 C164.026,14.84 164.314,13.166 164.404,10.88 L162.748,10.88 Z M169.336,18.53 L168.184,18.53 C166.906,18.53 166.276,17.954 166.276,16.82 L166.276,10.682 L167.914,10.682 L167.914,16.496 C167.914,16.784 168.022,16.964 168.238,17 L169.246,17 C169.57,16.964 169.768,16.73 169.804,16.298 L169.837136,15.9421975 C169.872222,15.4902222 169.894,14.91 169.894,14.21 L171.37,14.732 L171.364079,15.3135396 C171.334623,16.6966782 171.196353,17.5505882 170.974,17.9 C170.722,18.26 170.164,18.458 169.336,18.53 Z"/>
  </g>
</svg>
